<svg width="132" height="28" viewBox="0 0 132 28" fill="none" xmlns="http://www.w3.org/2000/svg">
<path d="M16.2053 23.6468H12.1404V21.5777C12.1404 20.9328 12.0862 20.3416 12.0049 19.8042C11.9236 19.2667 11.761 18.8099 11.5713 18.4337C11.3816 18.0307 11.1107 17.7351 10.8126 17.5201C10.5145 17.3051 10.1351 17.1977 9.6744 17.1977C9.45761 17.1977 9.24081 17.2245 9.05112 17.2783C8.80723 18.2725 8.40074 19.1593 7.85876 19.9385C7.31677 20.7178 6.69349 21.3896 5.98891 21.9001C5.28434 22.4376 4.52556 22.8406 3.71258 23.1362C2.89961 23.4049 2.08664 23.5662 1.30076 23.5662V19.5623C1.78854 19.5623 2.27633 19.4548 2.76411 19.213C3.2519 18.9712 3.68549 18.6487 4.03777 18.2725C4.41716 17.8694 4.71525 17.4126 4.93205 16.9021C5.14884 16.3646 5.28434 15.8003 5.28434 15.2092C5.28434 14.9405 5.25724 14.6449 5.23014 14.2687C5.17594 13.9193 5.06754 13.5431 4.90495 13.1938C4.74235 12.8445 4.47136 12.4952 4.14617 12.1727C3.79388 11.8502 3.3332 11.6084 2.76411 11.4472C2.57442 11.4203 2.35763 11.3397 2.14083 11.2322C1.92404 11.1247 1.70725 10.9635 1.51755 10.7485C1.30076 10.5335 1.13816 10.2648 1.00267 9.94237C0.867173 9.61992 0.812975 9.18997 0.812975 8.70629V8.30322C0.812975 8.11512 0.840074 8.00763 0.867173 7.90015H0V7.2821H17.3977V7.90015H16.2053V23.6468ZM9.10532 13.1938H9.48471C10.5416 13.1938 11.4358 13.3819 12.1404 13.7312V7.90015H4.85075V7.95389C6.88319 8.84065 8.26524 10.4261 8.99692 12.6564L9.07822 13.0326C9.07822 13.0595 9.10532 13.1132 9.10532 13.1938Z" fill="#00BA88"/>
<path d="M17.3975 7.90015V7.2821H34.1176V7.90015H23.1696L23.1425 12.6564C24.0639 11.689 25.1749 10.8829 26.4486 10.2111C27.7222 9.56617 29.2127 9.21685 30.8928 9.21685H32.9253V23.6468H28.8604V13.5969C28.0203 13.8925 27.2616 14.3493 26.6112 14.9405C25.9608 15.5316 25.3917 16.1497 24.931 16.7946C24.4703 17.4395 24.091 18.0307 23.7929 18.6218C23.4948 19.213 23.3051 19.6429 23.1696 19.9117V20.2072H19.1047V7.90015H17.3975Z" fill="#00BA88"/>
<path d="M39.9169 23.6468H35.7978V8.94813C35.6081 8.24948 35.2016 7.90015 34.6055 7.90015H34.0635V7.28211H34.6055C35.039 7.28211 35.4184 7.4702 35.7978 7.8464V6.66406H39.9169V7.28211H41.1093V7.90015H39.9169V23.6468Z" fill="#00BA88"/>
<path d="M46.3664 0C46.3393 0.241843 46.4206 0.591171 46.6103 1.02111C46.8 1.47793 47.1522 1.90787 47.7213 2.28407C48.2904 2.66027 49.1576 2.87524 50.377 2.87524H53.7915V6.87908C53.3308 7.01344 52.9244 7.14779 52.5721 7.30902H54.3606V7.92706H51.2442C51.0003 8.06142 50.7835 8.16891 50.6209 8.30326C51.8404 8.97505 52.7076 9.94242 53.1954 11.2054C53.6831 12.4683 53.7373 13.8119 53.3037 15.263C52.7889 16.7678 51.8133 17.9232 50.3228 18.7025C49.8893 18.9175 49.3744 19.1056 48.8324 19.2131L56.2305 24.7486H50.8648L43.0332 19.5355V15.5048H43.819C44.1984 15.5048 44.6862 15.5048 45.3095 15.5048C45.9328 15.5048 46.529 15.4779 47.1251 15.4242C47.7213 15.3704 48.1278 15.2898 48.3988 15.1555C48.5885 15.0749 48.7511 14.9405 48.9679 14.7524C49.1576 14.5643 49.2931 14.3225 49.4015 14.0269C49.537 13.6238 49.537 13.2207 49.4015 12.7908C49.2931 12.3608 49.0492 12.0653 48.6969 11.8772C48.4801 11.7965 48.2362 11.7697 47.9652 11.7965C47.6942 11.8234 47.4503 11.904 47.2064 12.0384C47.098 12.119 47.0167 12.1727 46.9625 12.2265C46.9083 12.2802 46.8812 12.334 46.8812 12.3877C46.8812 12.4415 46.8812 12.4952 46.8812 12.5221V14.215H42.8164V12.5221C42.8164 10.9367 43.5481 9.61996 45.0114 8.62572C45.4992 8.30326 46.0412 8.08829 46.6103 7.95393H41.082V7.33589H48.5885C48.6698 7.17466 48.7511 7.01344 48.8595 6.85221C47.098 6.58349 45.7431 6.01919 44.7675 5.15931C43.819 4.3263 43.1687 3.41267 42.8164 2.41843C42.4641 1.42418 42.2744 0.644914 42.2744 0.0537428H46.3664V0Z" fill="#00BA88"/>
<path d="M61.5693 7.90015V7.2821H80.7555V7.90015H74.6311V11.3397H73.9537C73.7369 11.3397 73.493 11.4203 73.222 11.5815C72.951 11.7428 72.8426 12.0115 72.8426 12.3608C72.8426 12.5758 72.8968 12.7907 73.0323 12.9788C73.1678 13.1938 73.3575 13.2744 73.6285 13.2744C73.8724 13.2744 74.1162 13.2207 74.3601 13.0863C74.604 12.952 74.8479 12.8445 75.0647 12.6833L75.2273 12.5758C75.3899 12.4414 75.6338 12.3339 75.959 12.1727C76.2842 12.0383 76.6636 11.9577 77.0972 11.9577C77.6662 11.9577 78.1269 12.0921 78.5063 12.3877C78.8857 12.6833 79.1838 13.0326 79.4006 13.4625C79.6174 13.8925 79.78 14.3762 79.8884 14.8867C79.9968 15.3973 80.0239 15.9078 80.0239 16.3646C80.0239 17.3589 79.8342 18.2725 79.4548 19.1324C79.0754 19.9923 78.5605 20.7715 77.883 21.4165C77.2056 22.0614 76.4197 22.5988 75.5254 22.975C74.6311 23.3512 73.6556 23.5662 72.5987 23.5662C71.1082 23.5662 69.7804 23.2706 68.5609 22.7063C67.3686 22.142 66.3117 21.3627 65.4716 20.3953C64.6044 19.428 63.9541 18.2994 63.4934 16.9827C63.0327 15.666 62.7888 14.2955 62.7888 12.8176L66.8266 13.4894C66.935 14.403 67.1247 15.236 67.4228 15.9616C67.7208 16.714 68.1002 17.332 68.588 17.8694C69.0758 18.4069 69.6449 18.8099 70.3224 19.1055C70.9998 19.4011 71.7315 19.5355 72.5716 19.5355C73.4659 19.5355 74.2517 19.2667 74.875 18.7293C75.4983 18.1919 75.8777 17.5201 75.959 16.6602C75.6067 16.7946 75.2273 16.9289 74.8479 17.0364C74.4685 17.1439 74.035 17.1977 73.6014 17.1977C72.9239 17.1977 72.2735 17.0633 71.6773 16.7946C71.0811 16.5259 70.5663 16.1765 70.1327 15.7197C69.6991 15.2629 69.3739 14.7255 69.13 14.1343C68.8861 13.5163 68.7506 12.8982 68.7506 12.2264C68.7506 11.7965 68.8048 11.3397 68.9132 10.9097C69.0216 10.4798 69.2113 10.0499 69.4281 9.67366C69.672 9.27059 69.943 8.92126 70.2953 8.5988C70.6205 8.27635 71.0269 8.00763 71.4605 7.81953H61.5693V7.90015Z" fill="#00BA88"/>
<path d="M86.6093 23.6468H82.4902V8.94813C82.3005 8.24948 81.894 7.90015 81.2978 7.90015H80.7559V7.28211H81.2978C81.7314 7.28211 82.1108 7.4702 82.4902 7.8464V6.66406H86.6093V7.28211H87.8016V7.90015H86.6093V23.6468Z" fill="#00BA88"/>
<path d="M102.787 21.7389C103.329 21.3627 103.627 20.8253 103.735 20.1804L103.464 20.3147C102.841 20.5835 102.19 20.7447 101.54 20.7447C101.242 20.7447 100.944 20.7178 100.673 20.6641L100.592 20.6372C98.8301 20.1535 97.8275 19.0787 97.5294 17.4395H97.5023C97.5023 16.5796 97.3668 15.881 97.1229 15.3167C96.879 14.7524 96.5267 14.2956 96.1202 13.9462C95.7137 13.5969 95.253 13.3282 94.7111 13.167C94.1962 13.0057 93.6813 12.8982 93.1393 12.8445C93.1122 12.9251 93.1122 13.0326 93.1122 13.167C93.1122 13.5163 93.1664 13.785 93.2748 13.9731C93.3832 14.1612 93.5187 14.3224 93.6813 14.403C93.8439 14.5105 94.0336 14.5643 94.2504 14.5911C94.4672 14.618 94.684 14.618 94.9008 14.618V18.6219C93.0851 18.6219 91.6489 18.1382 90.6191 17.1708C89.5893 16.2034 89.0744 14.8867 89.0744 13.167C89.0744 12.7908 89.1015 12.3608 89.1286 11.8503C89.1557 11.3397 89.2912 10.856 89.4809 10.3992C89.6706 9.94239 89.9687 9.56619 90.3481 9.21686C90.7275 8.8944 91.2966 8.73318 92.0283 8.73318C92.7057 8.73318 93.5187 8.81379 94.4943 8.97502C95.4698 9.13625 96.4725 9.48558 97.5294 9.99613V7.87329H87.8008V7.25525H108.586V7.87329H101.567V17.0096L101.621 17.1171L104.223 15.9078L104.602 15.8541H104.873C105.415 15.8541 105.903 15.9885 106.337 16.2303C106.77 16.4721 107.095 16.8483 107.339 17.3052V17.332C107.692 18.165 107.881 18.9981 107.881 19.7773C107.881 20.6103 107.692 21.4165 107.339 22.1689C106.987 22.9213 106.472 23.5931 105.849 24.1574C105.226 24.7485 104.467 25.2053 103.572 25.5278C102.705 25.8771 101.757 26.0384 100.727 26.0384H100.619C99.5618 26.0384 98.5862 25.8771 97.6649 25.5815C96.7435 25.286 95.9034 24.8829 95.1176 24.3455C94.3588 23.808 93.6813 23.19 93.1393 22.4913C92.5702 21.7658 92.1366 20.9865 91.8386 20.1267L91.6218 19.4011L95.9305 19.643C96.3912 20.476 97.0145 21.1478 97.8275 21.6583C98.6404 22.1689 99.5889 22.4107 100.7 22.4107C101.567 22.4376 102.272 22.1957 102.787 21.7389Z" fill="#00BA88"/>
<path d="M114.413 23.6468H110.294V8.94813C110.104 8.24948 109.698 7.90015 109.102 7.90015H108.56V7.28211H109.102C109.535 7.28211 109.915 7.4702 110.294 7.8464V6.66406H114.413V7.28211H115.605V7.90015H114.413V23.6468Z" fill="#00BA88"/>
<path d="M115.605 7.90015V7.2821H132V7.90015H130.808V23.6737L128.64 23.5393C127.312 23.4587 126.12 23.1631 125.063 22.6794C124.006 22.1957 123.058 21.6314 122.245 20.9596C121.432 20.3147 120.727 19.5892 120.131 18.8368C119.535 18.0844 119.047 17.3858 118.668 16.7408C118.288 16.0959 117.99 15.5316 117.801 15.1017C117.611 14.6449 117.502 14.403 117.475 14.3493L116.879 12.7101L126.12 7.87327H115.605V7.90015ZM122.434 28C122.055 28 121.703 27.9193 121.35 27.785C120.998 27.6506 120.7 27.4357 120.456 27.1938C120.212 26.952 120.023 26.6564 119.86 26.3071C119.697 25.9846 119.643 25.6084 119.643 25.2322C119.643 24.4529 119.914 23.7811 120.429 23.2706C120.944 22.76 121.621 22.4913 122.407 22.4913C122.787 22.4913 123.139 22.5719 123.464 22.7063C123.789 22.8675 124.088 23.0556 124.358 23.2975C124.602 23.5393 124.819 23.8349 124.982 24.1573C125.144 24.4798 125.199 24.856 125.199 25.2322C125.199 25.6084 125.117 25.9577 124.982 26.3071C124.819 26.6564 124.629 26.952 124.386 27.1938C124.142 27.4357 123.844 27.6238 123.491 27.785C123.166 27.9193 122.814 28 122.434 28ZM126.743 19.0249V12.0652L122.055 14.5374C122.272 14.9136 122.516 15.3167 122.814 15.7466C123.112 16.1765 123.437 16.5796 123.844 16.9827C124.223 17.3858 124.657 17.762 125.144 18.1113C125.632 18.4337 126.147 18.7562 126.743 19.0249Z" fill="#00BA88"/>
</svg>
